<svg width="741" height="572" viewBox="0 0 741 572" fill="none" xmlns="http://www.w3.org/2000/svg">
<g clip-path="url(#clip0_2_6)">
<path d="M431.631 100.837C445.519 100.837 456.777 88.888 456.777 74.1482C456.777 59.4084 445.519 47.4595 431.631 47.4595C417.744 47.4595 406.485 59.4084 406.485 74.1482C406.485 88.888 417.744 100.837 431.631 100.837Z" fill="#0891B2"/>
<path d="M626.696 496.928C664.072 466.713 681.924 415.939 670.748 367.504C670.47 366.301 670.177 365.1 669.869 363.902C662.459 335.151 644.129 307.826 617.412 298.64C594.98 290.926 570.494 296.858 547.091 293.791C501.151 287.769 465.534 248.317 440.473 207.01C415.412 165.704 396.152 119.467 362.851 85.3411C307.96 29.0911 218.42 16.9804 150.364 53.595C82.3072 90.2096 38.956 171.442 40.8048 252.401C42.6537 333.359 87.9367 410.761 153.699 451.828C177.857 466.914 205.799 477.601 233.606 473.862C257.734 470.617 279.658 456.857 303.672 452.772C341.429 446.349 378.944 464.467 411.601 485.581C444.257 506.694 475.801 531.72 512.911 541.508C548.944 551.012 593.586 523.694 626.696 496.928Z" fill="#0891B2"/>
<path d="M572.995 55.295C572.175 54.7153 571.347 54.1655 570.527 53.6058C546.843 37.5288 521.457 24.468 494.894 14.6933L488.735 104.873H449.689V1.52925C447.231 0.989492 444.754 0.479723 442.278 -6.10352e-05V104.873H395.877C370.333 104.873 345.835 94.1027 327.772 74.932C309.71 55.7613 299.562 29.7603 299.562 2.64886V2.64877C297.076 3.21851 294.609 3.82824 292.141 4.47795V104.873H254.348L248.481 18.8814C221.184 29.9927 195.269 44.6046 171.313 62.3919C170.898 62.6917 170.484 63.0016 170.079 63.3014C167.998 64.8507 165.945 66.43 163.901 68.0293V412.064H275.284L273.315 383.127L262.485 224.249H480.589L469.758 383.127L467.79 412.064H577.939V58.7735C576.3 57.594 574.652 56.4346 572.995 55.295ZM292.141 198.011H260.696L254.885 112.749H292.141V198.011ZM442.278 198.011H389.463V196.321C389.463 195.509 389.313 194.705 389.02 193.955C388.726 193.205 388.297 192.524 387.755 191.95C387.214 191.376 386.571 190.921 385.864 190.612C385.157 190.302 384.399 190.143 383.634 190.144H360.674C359.909 190.144 359.152 190.304 358.446 190.614C357.74 190.924 357.098 191.379 356.558 191.953C356.017 192.527 355.588 193.208 355.296 193.957C355.004 194.707 354.853 195.51 354.853 196.321V198.011H299.562V112.749H442.278V198.011ZM449.689 198.011V112.749H488.198L482.387 198.011H449.689Z" fill="#3F3D56"/>
<path d="M-3.05176e-05 434.095C8.18133 444.384 17.0304 454.053 26.4824 463.032L714.518 464.032C723.97 455.053 732.819 445.384 741 435.095L-3.05176e-05 434.095Z" fill="#3F3D56"/>
<path d="M466.579 341.437V427.103C466.58 428.195 466.989 429.241 467.716 430.013C468.443 430.785 469.429 431.219 470.458 431.22H590.067C591.095 431.219 592.081 430.785 592.809 430.013C593.536 429.241 593.945 428.195 593.946 427.103V341.437C593.943 340.347 593.534 339.301 592.807 338.531C592.079 337.76 591.094 337.326 590.067 337.325H470.458C469.43 337.326 468.445 337.76 467.718 338.531C466.991 339.301 466.581 340.347 466.579 341.437Z" fill="#3F3D56"/>
<path d="M469.385 342.503V426.046C469.386 426.629 469.604 427.188 469.993 427.601C470.382 428.013 470.908 428.245 471.458 428.247H589.071C589.62 428.245 590.147 428.013 590.536 427.601C590.924 427.188 591.143 426.629 591.144 426.046V342.503C591.144 341.919 590.926 341.359 590.537 340.946C590.148 340.532 589.621 340.3 589.071 340.298H471.458C470.908 340.3 470.381 340.532 469.992 340.946C469.603 341.359 469.385 341.919 469.385 342.503Z" fill="#0891B2"/>
<path d="M464.077 443.81C464.296 444.101 464.575 444.337 464.892 444.498C465.209 444.659 465.556 444.741 465.908 444.739H593.98C594.33 444.739 594.676 444.656 594.992 444.495C595.308 444.335 595.587 444.102 595.808 443.814C596.028 443.525 596.185 443.188 596.268 442.826C596.35 442.465 596.356 442.089 596.284 441.725L594.296 431.702C594.213 431.294 594.036 430.913 593.78 430.596C593.523 430.278 593.196 430.034 592.828 429.885C592.562 429.774 592.278 429.718 591.992 429.718H467.888C467.602 429.718 467.318 429.774 467.052 429.885C466.684 430.034 466.357 430.278 466.1 430.596C465.844 430.913 465.667 431.294 465.584 431.702L463.596 441.725C463.525 442.089 463.532 442.464 463.615 442.825C463.698 443.186 463.856 443.522 464.077 443.81Z" fill="#2F2E41"/>
<path d="M587.598 434.035H590.623C590.877 434.035 591.082 433.816 591.082 433.547V432.011C591.082 431.741 590.877 431.523 590.623 431.523H587.598C587.344 431.523 587.138 431.741 587.138 432.011V433.547C587.138 433.816 587.344 434.035 587.598 434.035Z" fill="#3F3D56"/>
<path d="M579.709 434.035H582.734C582.987 434.035 583.193 433.816 583.193 433.547V432.011C583.193 431.741 582.987 431.523 582.734 431.523H579.709C579.455 431.523 579.249 431.741 579.249 432.011V433.547C579.249 433.816 579.455 434.035 579.709 434.035Z" fill="#3F3D56"/>
<path d="M571.819 434.035H574.844C575.098 434.035 575.304 433.816 575.304 433.547V432.011C575.304 431.741 575.098 431.523 574.844 431.523H571.819C571.565 431.523 571.36 431.741 571.36 432.011V433.547C571.36 433.816 571.565 434.035 571.819 434.035Z" fill="#3F3D56"/>
<path d="M563.93 434.035H566.955C567.209 434.035 567.415 433.816 567.415 433.547V432.011C567.415 431.741 567.209 431.523 566.955 431.523H563.93C563.676 431.523 563.471 431.741 563.471 432.011V433.547C563.471 433.816 563.676 434.035 563.93 434.035Z" fill="#3F3D56"/>
<path d="M556.041 434.035H559.066C559.32 434.035 559.526 433.816 559.526 433.547V432.011C559.526 431.741 559.32 431.523 559.066 431.523H556.041C555.787 431.523 555.581 431.741 555.581 432.011V433.547C555.581 433.816 555.787 434.035 556.041 434.035Z" fill="#3F3D56"/>
<path d="M548.152 434.035H551.177C551.431 434.035 551.637 433.816 551.637 433.547V432.011C551.637 431.741 551.431 431.523 551.177 431.523H548.152C547.898 431.523 547.692 431.741 547.692 432.011V433.547C547.692 433.816 547.898 434.035 548.152 434.035Z" fill="#3F3D56"/>
<path d="M540.263 434.035H543.288C543.542 434.035 543.748 433.816 543.748 433.547V432.011C543.748 431.741 543.542 431.523 543.288 431.523H540.263C540.009 431.523 539.803 431.741 539.803 432.011V433.547C539.803 433.816 540.009 434.035 540.263 434.035Z" fill="#3F3D56"/>
<path d="M532.374 434.035H535.399C535.653 434.035 535.858 433.816 535.858 433.547V432.011C535.858 431.741 535.653 431.523 535.399 431.523H532.374C532.12 431.523 531.914 431.741 531.914 432.011V433.547C531.914 433.816 532.12 434.035 532.374 434.035Z" fill="#3F3D56"/>
<path d="M524.484 434.035H527.51C527.763 434.035 527.969 433.816 527.969 433.547V432.011C527.969 431.741 527.763 431.523 527.51 431.523H524.484C524.231 431.523 524.025 431.741 524.025 432.011V433.547C524.025 433.816 524.231 434.035 524.484 434.035Z" fill="#3F3D56"/>
<path d="M516.595 434.035H519.62C519.874 434.035 520.08 433.816 520.08 433.547V432.011C520.08 431.741 519.874 431.523 519.62 431.523H516.595C516.341 431.523 516.136 431.741 516.136 432.011V433.547C516.136 433.816 516.341 434.035 516.595 434.035Z" fill="#3F3D56"/>
<path d="M508.706 434.035H511.731C511.985 434.035 512.191 433.816 512.191 433.547V432.011C512.191 431.741 511.985 431.523 511.731 431.523H508.706C508.452 431.523 508.246 431.741 508.246 432.011V433.547C508.246 433.816 508.452 434.035 508.706 434.035Z" fill="#3F3D56"/>
<path d="M500.817 434.035H503.842C504.096 434.035 504.302 433.816 504.302 433.547V432.011C504.302 431.741 504.096 431.523 503.842 431.523H500.817C500.563 431.523 500.357 431.741 500.357 432.011V433.547C500.357 433.816 500.563 434.035 500.817 434.035Z" fill="#3F3D56"/>
<path d="M492.928 434.035H495.953C496.207 434.035 496.413 433.816 496.413 433.547V432.011C496.413 431.741 496.207 431.523 495.953 431.523H492.928C492.674 431.523 492.468 431.741 492.468 432.011V433.547C492.468 433.816 492.674 434.035 492.928 434.035Z" fill="#3F3D56"/>
<path d="M485.039 434.035H488.064C488.318 434.035 488.524 433.816 488.524 433.547V432.011C488.524 431.741 488.318 431.523 488.064 431.523H485.039C484.785 431.523 484.579 431.741 484.579 432.011V433.547C484.579 433.816 484.785 434.035 485.039 434.035Z" fill="#3F3D56"/>
<path d="M477.15 434.035H480.175C480.429 434.035 480.634 433.816 480.634 433.547V432.011C480.634 431.741 480.429 431.523 480.175 431.523H477.15C476.896 431.523 476.69 431.741 476.69 432.011V433.547C476.69 433.816 476.896 434.035 477.15 434.035Z" fill="#3F3D56"/>
<path d="M469.26 434.035H472.285C472.539 434.035 472.745 433.816 472.745 433.547V432.011C472.745 431.741 472.539 431.523 472.285 431.523H469.26C469.006 431.523 468.801 431.741 468.801 432.011V433.547C468.801 433.816 469.006 434.035 469.26 434.035Z" fill="#3F3D56"/>
<path d="M587.691 438.221H590.716C590.97 438.221 591.176 438.003 591.176 437.733V436.197C591.176 435.928 590.97 435.709 590.716 435.709H587.691C587.437 435.709 587.231 435.928 587.231 436.197V437.733C587.231 438.003 587.437 438.221 587.691 438.221Z" fill="#3F3D56"/>
<path d="M579.802 438.221H582.827C583.081 438.221 583.287 438.003 583.287 437.733V436.197C583.287 435.928 583.081 435.709 582.827 435.709H579.802C579.548 435.709 579.342 435.928 579.342 436.197V437.733C579.342 438.003 579.548 438.221 579.802 438.221Z" fill="#3F3D56"/>
<path d="M571.913 438.221H574.938C575.192 438.221 575.397 438.003 575.397 437.733V436.197C575.397 435.928 575.192 435.709 574.938 435.709H571.913C571.659 435.709 571.453 435.928 571.453 436.197V437.733C571.453 438.003 571.659 438.221 571.913 438.221Z" fill="#3F3D56"/>
<path d="M564.023 438.221H567.049C567.302 438.221 567.508 438.003 567.508 437.733V436.197C567.508 435.928 567.302 435.709 567.049 435.709H564.023C563.769 435.709 563.564 435.928 563.564 436.197V437.733C563.564 438.003 563.769 438.221 564.023 438.221Z" fill="#3F3D56"/>
<path d="M556.134 438.221H559.159C559.413 438.221 559.619 438.003 559.619 437.733V436.197C559.619 435.928 559.413 435.709 559.159 435.709H556.134C555.88 435.709 555.675 435.928 555.675 436.197V437.733C555.675 438.003 555.88 438.221 556.134 438.221Z" fill="#3F3D56"/>
<path d="M548.245 438.221H551.27C551.524 438.221 551.73 438.003 551.73 437.733V436.197C551.73 435.928 551.524 435.709 551.27 435.709H548.245C547.991 435.709 547.785 435.928 547.785 436.197V437.733C547.785 438.003 547.991 438.221 548.245 438.221Z" fill="#3F3D56"/>
<path d="M540.356 438.221H543.381C543.635 438.221 543.841 438.003 543.841 437.733V436.197C543.841 435.928 543.635 435.709 543.381 435.709H540.356C540.102 435.709 539.896 435.928 539.896 436.197V437.733C539.896 438.003 540.102 438.221 540.356 438.221Z" fill="#3F3D56"/>
<path d="M532.467 438.221H535.492C535.746 438.221 535.952 438.003 535.952 437.733V436.197C535.952 435.928 535.746 435.709 535.492 435.709H532.467C532.213 435.709 532.007 435.928 532.007 436.197V437.733C532.007 438.003 532.213 438.221 532.467 438.221Z" fill="#3F3D56"/>
<path d="M524.578 438.221H527.603C527.857 438.221 528.062 438.003 528.062 437.733V436.197C528.062 435.928 527.857 435.709 527.603 435.709H524.578C524.324 435.709 524.118 435.928 524.118 436.197V437.733C524.118 438.003 524.324 438.221 524.578 438.221Z" fill="#3F3D56"/>
<path d="M516.689 438.221H519.714C519.968 438.221 520.173 438.003 520.173 437.733V436.197C520.173 435.928 519.968 435.709 519.714 435.709H516.689C516.435 435.709 516.229 435.928 516.229 436.197V437.733C516.229 438.003 516.435 438.221 516.689 438.221Z" fill="#3F3D56"/>
<path d="M508.799 438.221H511.824C512.078 438.221 512.284 438.003 512.284 437.733V436.197C512.284 435.928 512.078 435.709 511.824 435.709H508.799C508.545 435.709 508.34 435.928 508.34 436.197V437.733C508.34 438.003 508.545 438.221 508.799 438.221Z" fill="#3F3D56"/>
<path d="M500.91 438.221H503.935C504.189 438.221 504.395 438.003 504.395 437.733V436.197C504.395 435.928 504.189 435.709 503.935 435.709H500.91C500.656 435.709 500.45 435.928 500.45 436.197V437.733C500.45 438.003 500.656 438.221 500.91 438.221Z" fill="#3F3D56"/>
<path d="M493.021 438.221H496.046C496.3 438.221 496.506 438.003 496.506 437.733V436.197C496.506 435.928 496.3 435.709 496.046 435.709H493.021C492.767 435.709 492.561 435.928 492.561 436.197V437.733C492.561 438.003 492.767 438.221 493.021 438.221Z" fill="#3F3D56"/>
<path d="M485.132 438.221H488.157C488.411 438.221 488.617 438.003 488.617 437.733V436.197C488.617 435.928 488.411 435.709 488.157 435.709H485.132C484.878 435.709 484.672 435.928 484.672 436.197V437.733C484.672 438.003 484.878 438.221 485.132 438.221Z" fill="#3F3D56"/>
<path d="M477.243 438.221H480.268C480.522 438.221 480.728 438.003 480.728 437.733V436.197C480.728 435.928 480.522 435.709 480.268 435.709H477.243C476.989 435.709 476.783 435.928 476.783 436.197V437.733C476.783 438.003 476.989 438.221 477.243 438.221Z" fill="#3F3D56"/>
<path d="M469.354 438.221H472.379C472.633 438.221 472.838 438.003 472.838 437.733V436.197C472.838 435.928 472.633 435.709 472.379 435.709H469.354C469.1 435.709 468.894 435.928 468.894 436.197V437.733C468.894 438.003 469.1 438.221 469.354 438.221Z" fill="#3F3D56"/>
<path d="M522.211 443.245H552.848C553.102 443.245 553.308 443.027 553.308 442.757V441.221C553.308 440.952 553.102 440.733 552.848 440.733H522.211C521.957 440.733 521.751 440.952 521.751 441.221V442.757C521.751 443.027 521.957 443.245 522.211 443.245Z" fill="#3F3D56"/>
<path d="M489.752 358.575H487.074C486.262 358.575 485.604 359.274 485.604 360.136C485.604 360.998 486.262 361.696 487.074 361.696H489.752C490.564 361.696 491.222 360.998 491.222 360.136C491.222 359.274 490.564 358.575 489.752 358.575Z" fill="white"/>
<path d="M520.381 358.575H517.703C516.891 358.575 516.233 359.274 516.233 360.136C516.233 360.998 516.891 361.696 517.703 361.696H520.381C521.193 361.696 521.851 360.998 521.851 360.136C521.851 359.274 521.193 358.575 520.381 358.575Z" fill="white"/>
<path d="M529.059 358.575H526.381C525.569 358.575 524.911 359.274 524.911 360.136C524.911 360.998 525.569 361.696 526.381 361.696H529.059C529.871 361.696 530.529 360.998 530.529 360.136C530.529 359.274 529.871 358.575 529.059 358.575Z" fill="white"/>
<path d="M512.05 358.315H495.405C494.593 358.315 493.935 359.014 493.935 359.876C493.935 360.737 494.593 361.436 495.405 361.436H512.05C512.862 361.436 513.52 360.737 513.52 359.876C513.52 359.014 512.862 358.315 512.05 358.315Z" fill="white"/>
<path d="M552.888 358.315H536.244C535.432 358.315 534.774 359.014 534.774 359.876C534.774 360.737 535.432 361.436 536.244 361.436H552.888C553.7 361.436 554.359 360.737 554.359 359.876C554.359 359.014 553.7 358.315 552.888 358.315Z" fill="white"/>
<path d="M497.92 365.619H495.242C494.43 365.619 493.771 366.318 493.771 367.179C493.771 368.041 494.43 368.74 495.242 368.74H497.92C498.732 368.74 499.39 368.041 499.39 367.179C499.39 366.318 498.732 365.619 497.92 365.619Z" fill="white"/>
<path d="M528.549 365.619H525.871C525.059 365.619 524.4 366.318 524.4 367.179C524.4 368.041 525.059 368.74 525.871 368.74H528.549C529.361 368.74 530.019 368.041 530.019 367.179C530.019 366.318 529.361 365.619 528.549 365.619Z" fill="white"/>
<path d="M537.227 365.619H534.549C533.737 365.619 533.079 366.318 533.079 367.179C533.079 368.041 533.737 368.74 534.549 368.74H537.227C538.039 368.74 538.697 368.041 538.697 367.179C538.697 366.318 538.039 365.619 537.227 365.619Z" fill="white"/>
<path d="M520.217 365.359H503.573C502.761 365.359 502.103 366.057 502.103 366.919C502.103 367.781 502.761 368.48 503.573 368.48H520.217C521.029 368.48 521.688 367.781 521.688 366.919C521.688 366.057 521.029 365.359 520.217 365.359Z" fill="white"/>
<path d="M561.056 365.359H544.411C543.6 365.359 542.941 366.057 542.941 366.919C542.941 367.781 543.6 368.48 544.411 368.48H561.056C561.868 368.48 562.526 367.781 562.526 366.919C562.526 366.057 561.868 365.359 561.056 365.359Z" fill="white"/>
<path d="M506.087 372.662H503.409C502.597 372.662 501.939 373.361 501.939 374.223C501.939 375.085 502.597 375.783 503.409 375.783H506.087C506.899 375.783 507.558 375.085 507.558 374.223C507.558 373.361 506.899 372.662 506.087 372.662Z" fill="white"/>
<path d="M536.716 372.662H534.038C533.226 372.662 532.568 373.361 532.568 374.223C532.568 375.085 533.226 375.783 534.038 375.783H536.716C537.528 375.783 538.187 375.085 538.187 374.223C538.187 373.361 537.528 372.662 536.716 372.662Z" fill="white"/>
<path d="M545.395 372.662H542.717C541.905 372.662 541.246 373.361 541.246 374.223C541.246 375.085 541.905 375.783 542.717 375.783H545.395C546.207 375.783 546.865 375.085 546.865 374.223C546.865 373.361 546.207 372.662 545.395 372.662Z" fill="white"/>
<path d="M528.385 372.402H511.74C510.929 372.402 510.27 373.101 510.27 373.963C510.27 374.824 510.929 375.523 511.74 375.523H528.385C529.197 375.523 529.855 374.824 529.855 373.963C529.855 373.101 529.197 372.402 528.385 372.402Z" fill="white"/>
<path d="M569.224 372.402H552.579C551.767 372.402 551.109 373.101 551.109 373.963C551.109 374.824 551.767 375.523 552.579 375.523H569.224C570.036 375.523 570.694 374.824 570.694 373.963C570.694 373.101 570.036 372.402 569.224 372.402Z" fill="white"/>
<path d="M514.255 379.706H511.577C510.765 379.706 510.107 380.405 510.107 381.266C510.107 382.128 510.765 382.827 511.577 382.827H514.255C515.067 382.827 515.725 382.128 515.725 381.266C515.725 380.405 515.067 379.706 514.255 379.706Z" fill="white"/>
<path d="M544.884 379.706H542.206C541.394 379.706 540.736 380.405 540.736 381.266C540.736 382.128 541.394 382.827 542.206 382.827H544.884C545.696 382.827 546.354 382.128 546.354 381.266C546.354 380.405 545.696 379.706 544.884 379.706Z" fill="white"/>
<path d="M553.562 379.706H550.884C550.072 379.706 549.414 380.405 549.414 381.266C549.414 382.128 550.072 382.827 550.884 382.827H553.562C554.374 382.827 555.033 382.128 555.033 381.266C555.033 380.405 554.374 379.706 553.562 379.706Z" fill="white"/>
<path d="M536.553 379.446H519.908C519.096 379.446 518.438 380.144 518.438 381.006C518.438 381.868 519.096 382.567 519.908 382.567H536.553C537.365 382.567 538.023 381.868 538.023 381.006C538.023 380.144 537.365 379.446 536.553 379.446Z" fill="white"/>
<path d="M520.381 407.714H517.703C516.891 407.714 516.233 408.412 516.233 409.274C516.233 410.136 516.891 410.835 517.703 410.835H520.381C521.193 410.835 521.851 410.136 521.851 409.274C521.851 408.412 521.193 407.714 520.381 407.714Z" fill="white"/>
<path d="M529.059 407.714H526.381C525.569 407.714 524.911 408.412 524.911 409.274C524.911 410.136 525.569 410.835 526.381 410.835H529.059C529.871 410.835 530.529 410.136 530.529 409.274C530.529 408.412 529.871 407.714 529.059 407.714Z" fill="white"/>
<path d="M552.888 407.974H536.244C535.432 407.974 534.774 408.673 534.774 409.534C534.774 410.396 535.432 411.095 536.244 411.095H552.888C553.7 411.095 554.359 410.396 554.359 409.534C554.359 408.673 553.7 407.974 552.888 407.974Z" fill="white"/>
<path d="M489.752 407.714H487.074C486.262 407.714 485.604 408.412 485.604 409.274C485.604 410.136 486.262 410.835 487.074 410.835H489.752C490.564 410.835 491.222 410.136 491.222 409.274C491.222 408.412 490.564 407.714 489.752 407.714Z" fill="white"/>
<path d="M512.05 407.974H495.405C494.593 407.974 493.935 408.673 493.935 409.534C493.935 410.396 494.593 411.095 495.405 411.095H512.05C512.862 411.095 513.52 410.396 513.52 409.534C513.52 408.673 512.862 407.974 512.05 407.974Z" fill="white"/>
<path d="M497.92 400.67H495.242C494.43 400.67 493.771 401.369 493.771 402.231C493.771 403.092 494.43 403.791 495.242 403.791H497.92C498.732 403.791 499.39 403.092 499.39 402.231C499.39 401.369 498.732 400.67 497.92 400.67Z" fill="white"/>
<path d="M528.549 400.67H525.871C525.059 400.67 524.4 401.369 524.4 402.231C524.4 403.092 525.059 403.791 525.871 403.791H528.549C529.361 403.791 530.019 403.092 530.019 402.231C530.019 401.369 529.361 400.67 528.549 400.67Z" fill="white"/>
<path d="M537.227 400.67H534.549C533.737 400.67 533.079 401.369 533.079 402.231C533.079 403.092 533.737 403.791 534.549 403.791H537.227C538.039 403.791 538.697 403.092 538.697 402.231C538.697 401.369 538.039 400.67 537.227 400.67Z" fill="white"/>
<path d="M520.217 400.93H503.573C502.761 400.93 502.103 401.629 502.103 402.491C502.103 403.353 502.761 404.051 503.573 404.051H520.217C521.029 404.051 521.688 403.353 521.688 402.491C521.688 401.629 521.029 400.93 520.217 400.93Z" fill="white"/>
<path d="M506.087 393.627H503.409C502.597 393.627 501.939 394.325 501.939 395.187C501.939 396.049 502.597 396.748 503.409 396.748H506.087C506.899 396.748 507.558 396.049 507.558 395.187C507.558 394.325 506.899 393.627 506.087 393.627Z" fill="white"/>
<path d="M536.716 393.627H534.038C533.226 393.627 532.568 394.325 532.568 395.187C532.568 396.049 533.226 396.748 534.038 396.748H536.716C537.528 396.748 538.187 396.049 538.187 395.187C538.187 394.325 537.528 393.627 536.716 393.627Z" fill="white"/>
<path d="M545.395 393.627H542.717C541.905 393.627 541.246 394.325 541.246 395.187C541.246 396.049 541.905 396.748 542.717 396.748H545.395C546.207 396.748 546.865 396.049 546.865 395.187C546.865 394.325 546.207 393.627 545.395 393.627Z" fill="white"/>
<path d="M528.385 393.887H511.74C510.929 393.887 510.27 394.586 510.27 395.447C510.27 396.309 510.929 397.008 511.74 397.008H528.385C529.197 397.008 529.855 396.309 529.855 395.447C529.855 394.586 529.197 393.887 528.385 393.887Z" fill="white"/>
<path d="M514.255 386.583H511.577C510.765 386.583 510.107 387.282 510.107 388.144C510.107 389.006 510.765 389.704 511.577 389.704H514.255C515.067 389.704 515.725 389.006 515.725 388.144C515.725 387.282 515.067 386.583 514.255 386.583Z" fill="white"/>
<path d="M544.884 386.583H542.206C541.394 386.583 540.736 387.282 540.736 388.144C540.736 389.006 541.394 389.704 542.206 389.704H544.884C545.696 389.704 546.354 389.006 546.354 388.144C546.354 387.282 545.696 386.583 544.884 386.583Z" fill="white"/>
<path d="M553.562 386.583H550.884C550.072 386.583 549.414 387.282 549.414 388.144C549.414 389.006 550.072 389.704 550.884 389.704H553.562C554.374 389.704 555.033 389.006 555.033 388.144C555.033 387.282 554.374 386.583 553.562 386.583Z" fill="white"/>
<path d="M536.553 386.844H519.908C519.096 386.844 518.438 387.542 518.438 388.404C518.438 389.266 519.096 389.964 519.908 389.964H536.553C537.365 389.964 538.023 389.266 538.023 388.404C538.023 387.542 537.365 386.844 536.553 386.844Z" fill="white"/>
<path d="M475.514 490.261L462.942 469.169L502.403 435.781L518.692 416.628C520.808 414.14 523.502 412.285 526.505 411.248C529.509 410.211 532.716 410.029 535.806 410.72C538.897 411.411 541.762 412.95 544.116 415.185C546.471 417.419 548.231 420.27 549.222 423.453C550.69 428.17 550.374 433.307 548.341 437.781C546.308 442.255 542.717 445.716 538.325 447.433L512.569 457.504L475.514 490.261Z" fill="#FFB6B6"/>
<path d="M180.527 337.329V439.843H248.193V337.329C248.194 336.591 247.972 335.873 247.56 335.28C247.149 334.686 246.568 334.248 245.904 334.03C245.592 333.921 245.264 333.867 244.934 333.87H183.795C183.366 333.869 182.942 333.958 182.546 334.132C182.149 334.305 181.789 334.56 181.486 334.881C181.182 335.202 180.941 335.583 180.777 336.003C180.612 336.424 180.527 336.874 180.527 337.329ZM206.934 372.553C206.952 370.532 207.721 368.6 209.073 367.178C210.426 365.755 212.253 364.957 214.157 364.957C216.062 364.957 217.889 365.755 219.242 367.178C220.594 368.6 221.363 370.532 221.381 372.553V384.448C221.371 386.474 220.606 388.414 219.252 389.843C217.899 391.273 216.067 392.075 214.157 392.075C212.248 392.075 210.416 391.273 209.063 389.843C207.709 388.414 206.944 386.474 206.934 384.448V372.553Z" fill="#2F2E41"/>
<path d="M180.32 436.564V446.45C180.321 446.962 180.513 447.453 180.853 447.816C181.194 448.179 181.655 448.385 182.138 448.389H246.583C247.065 448.386 247.528 448.181 247.868 447.817C248.209 447.454 248.4 446.962 248.4 446.45V436.564H180.32Z" fill="#3F3D56"/>
<path d="M74.0793 182.878V370.054C74.081 372.439 74.9746 374.726 76.5637 376.413C78.1529 378.1 80.3077 379.048 82.5551 379.05H343.895C346.143 379.048 348.297 378.1 349.887 376.413C351.476 374.726 352.369 372.439 352.371 370.054V182.878C352.366 180.495 351.471 178.211 349.882 176.527C348.293 174.843 346.141 173.896 343.895 173.893H82.5551C80.3097 173.896 78.1569 174.843 76.5683 176.527C74.9796 178.211 74.0846 180.495 74.0793 182.878Z" fill="#3F3D56"/>
<path d="M80.2102 185.207V367.745C80.2122 369.02 80.6901 370.241 81.5392 371.142C82.3883 372.043 83.5393 372.551 84.7401 372.553H341.72C342.92 372.551 344.071 372.043 344.92 371.142C345.77 370.241 346.247 369.02 346.25 367.745V185.207C346.249 183.931 345.772 182.708 344.923 181.804C344.074 180.901 342.922 180.392 341.72 180.39H84.7401C83.5378 180.392 82.3857 180.901 81.5365 181.804C80.6873 182.708 80.2103 183.931 80.2102 185.207Z" fill="#0891B2"/>
<path d="M127.901 447.719C128.163 448.067 128.495 448.348 128.874 448.54C129.252 448.732 129.667 448.831 130.086 448.829H282.972C283.39 448.828 283.803 448.729 284.181 448.537C284.558 448.346 284.89 448.068 285.154 447.724C285.417 447.379 285.605 446.976 285.703 446.545C285.802 446.114 285.808 445.665 285.722 445.23L283.349 433.266C283.251 432.778 283.039 432.324 282.733 431.945C282.427 431.566 282.037 431.274 281.597 431.097C281.279 430.964 280.941 430.896 280.599 430.897H132.45C132.108 430.896 131.77 430.964 131.452 431.097C131.012 431.274 130.622 431.566 130.316 431.945C130.01 432.324 129.798 432.778 129.7 433.266L127.327 445.23C127.242 445.664 127.25 446.113 127.349 446.543C127.449 446.974 127.637 447.376 127.901 447.719Z" fill="#2F2E41"/>
<path d="M333.38 205.535H92.9251C92.6751 205.529 92.4373 205.42 92.2625 205.23C92.0877 205.04 91.9899 204.785 91.9899 204.52C91.9899 204.255 92.0877 204 92.2625 203.81C92.4373 203.621 92.6751 203.511 92.9251 203.505H333.38C333.63 203.511 333.868 203.621 334.042 203.81C334.217 204 334.315 204.255 334.315 204.52C334.315 204.785 334.217 205.04 334.042 205.23C333.868 205.42 333.63 205.529 333.38 205.535Z" fill="#3F3D56"/>
<path d="M109.293 198.323C112.388 198.323 114.897 195.601 114.897 192.243C114.897 188.885 112.388 186.163 109.293 186.163C106.198 186.163 103.689 188.885 103.689 192.243C103.689 195.601 106.198 198.323 109.293 198.323Z" fill="#3F3D56"/>
<path d="M128.652 198.323C131.747 198.323 134.256 195.601 134.256 192.243C134.256 188.885 131.747 186.163 128.652 186.163C125.557 186.163 123.048 188.885 123.048 192.243C123.048 195.601 125.557 198.323 128.652 198.323Z" fill="#3F3D56"/>
<path d="M148.011 198.323C151.106 198.323 153.615 195.601 153.615 192.243C153.615 188.885 151.106 186.163 148.011 186.163C144.916 186.163 142.407 188.885 142.407 192.243C142.407 195.601 144.916 198.323 148.011 198.323Z" fill="#3F3D56"/>
<path d="M321.723 187.666H307.973C307.701 187.673 307.442 187.792 307.252 187.999C307.062 188.205 306.956 188.482 306.956 188.771C306.956 189.059 307.062 189.336 307.252 189.543C307.442 189.749 307.701 189.869 307.973 189.875H321.723C321.996 189.871 322.257 189.753 322.449 189.546C322.641 189.34 322.749 189.061 322.749 188.771C322.749 188.481 322.641 188.202 322.449 187.995C322.257 187.789 321.996 187.67 321.723 187.666Z" fill="#3F3D56"/>
<path d="M321.723 191.814H307.973C307.701 191.821 307.442 191.94 307.252 192.146C307.061 192.353 306.955 192.63 306.955 192.919C306.955 193.208 307.061 193.485 307.252 193.691C307.442 193.898 307.701 194.017 307.973 194.023H321.723C321.996 194.02 322.258 193.902 322.45 193.695C322.643 193.489 322.751 193.21 322.751 192.919C322.751 192.628 322.643 192.349 322.45 192.143C322.258 191.936 321.996 191.818 321.723 191.814Z" fill="#3F3D56"/>
<path d="M321.723 195.963H307.973C307.701 195.969 307.442 196.089 307.252 196.295C307.062 196.501 306.956 196.778 306.956 197.067C306.956 197.356 307.062 197.633 307.252 197.839C307.442 198.045 307.701 198.165 307.973 198.172H321.723C321.996 198.167 322.257 198.049 322.449 197.843C322.641 197.636 322.749 197.357 322.749 197.067C322.749 196.777 322.641 196.498 322.449 196.291C322.257 196.085 321.996 195.967 321.723 195.963Z" fill="#3F3D56"/>
<path d="M653.205 440.903C653.62 442.185 654.407 443.294 655.453 444.072C656.499 444.85 657.751 445.256 659.028 445.232L683.977 444.55C685.263 444.524 686.507 444.056 687.522 443.217C688.538 442.378 689.27 441.213 689.609 439.895L693.14 399.826C694.392 400.428 695.756 400.726 697.131 400.697C698.326 400.665 699.502 400.384 700.595 399.869C701.687 399.354 702.672 398.617 703.496 397.698C704.319 396.779 704.964 395.697 705.394 394.513C705.823 393.33 706.029 392.068 705.999 390.8C705.969 389.532 705.704 388.283 705.219 387.124C704.734 385.965 704.039 384.919 703.173 384.045C702.307 383.171 701.288 382.487 700.173 382.031C699.058 381.575 697.869 381.357 696.674 381.389C696.125 381.387 695.577 381.447 695.039 381.569C694.455 380.898 693.745 380.364 692.954 380.002C692.163 379.64 691.31 379.458 690.449 379.467L652.072 380.519C651.753 380.531 651.437 380.573 651.125 380.644C650.283 380.81 649.485 381.166 648.784 381.688C648.083 382.209 647.495 382.884 647.06 383.666C646.625 384.449 646.354 385.322 646.263 386.225C646.173 387.129 646.266 388.042 646.536 388.905L653.205 440.903ZM693.864 397.105L696.376 387.557C696.662 386.454 696.669 385.291 696.395 384.184C696.517 384.184 696.625 384.122 696.747 384.122C698.469 384.084 700.136 384.773 701.381 386.037C702.625 387.301 703.347 389.038 703.388 390.866C703.428 392.694 702.784 394.465 701.596 395.79C700.408 397.114 698.774 397.885 697.051 397.933C695.938 397.97 694.836 397.684 693.864 397.105Z" fill="#2F2E41"/>
<path d="M651.125 380.644C651.943 385.605 661.135 389.094 672.188 388.487C682.353 387.99 690.663 384.202 692.186 379.713C691.623 379.536 691.037 379.453 690.449 379.467L652.072 380.519C651.753 380.531 651.437 380.573 651.125 380.644Z" fill="#3F3D56"/>
<path d="M674.214 418.884C674.265 418.871 674.313 418.848 674.356 418.818L679.774 415.054C679.84 415.009 679.894 414.947 679.931 414.874C679.968 414.801 679.988 414.719 679.988 414.636C679.988 414.553 679.968 414.471 679.931 414.398C679.894 414.325 679.84 414.263 679.775 414.218L674.143 410.303C674.091 410.267 674.033 410.242 673.973 410.229C673.912 410.217 673.849 410.217 673.789 410.23C673.728 410.244 673.67 410.27 673.619 410.307C673.568 410.344 673.524 410.391 673.49 410.446C673.456 410.501 673.432 410.562 673.421 410.627C673.409 410.692 673.41 410.758 673.423 410.823C673.436 410.887 673.46 410.948 673.495 411.002C673.53 411.056 673.575 411.103 673.627 411.139L678.657 414.635L673.841 417.982C673.748 418.046 673.679 418.144 673.647 418.257C673.615 418.371 673.623 418.492 673.667 418.601C673.712 418.709 673.792 418.797 673.892 418.849C673.992 418.901 674.106 418.913 674.214 418.884H674.214Z" fill="#0891B2"/>
<path d="M665.657 419.303C665.747 419.279 665.829 419.226 665.892 419.152C665.954 419.078 665.995 418.985 666.007 418.887C666.02 418.788 666.005 418.688 665.964 418.598C665.922 418.509 665.857 418.435 665.775 418.385L660.781 415.346L665.608 411.541C665.658 411.502 665.7 411.452 665.731 411.396C665.763 411.34 665.784 411.278 665.793 411.213C665.802 411.148 665.799 411.082 665.784 411.018C665.769 410.954 665.742 410.895 665.705 410.842C665.668 410.789 665.622 410.745 665.569 410.711C665.516 410.678 665.457 410.655 665.396 410.646C665.335 410.636 665.273 410.639 665.213 410.655C665.153 410.671 665.096 410.7 665.047 410.739L659.642 415C659.58 415.049 659.529 415.114 659.496 415.189C659.463 415.265 659.448 415.347 659.453 415.43C659.457 415.513 659.482 415.593 659.523 415.664C659.564 415.734 659.621 415.793 659.689 415.834L665.307 419.252C665.413 419.317 665.538 419.335 665.657 419.303Z" fill="#0891B2"/>
<path d="M673.675 422.183C673.721 422.171 673.764 422.151 673.804 422.125C673.857 422.091 673.903 422.046 673.94 421.993C673.976 421.94 674.003 421.88 674.017 421.816C674.032 421.752 674.035 421.686 674.025 421.621C674.016 421.556 673.994 421.494 673.962 421.438L666.281 408.036C666.216 407.923 666.112 407.842 665.99 407.811C665.869 407.78 665.741 407.801 665.634 407.87C665.528 407.939 665.451 408.05 665.422 408.178C665.392 408.307 665.412 408.443 665.477 408.556L673.157 421.958C673.21 422.05 673.288 422.121 673.382 422.161C673.475 422.201 673.578 422.209 673.675 422.183Z" fill="#0891B2"/>
<path d="M241.883 260.71H200.265C198.567 260.71 197.191 262.17 197.191 263.972V268.288C197.191 270.09 198.567 271.55 200.265 271.55H241.883C243.58 271.55 244.957 270.09 244.957 268.288V263.972C244.957 262.17 243.58 260.71 241.883 260.71Z" fill="#E6E6E6"/>
<path d="M266.141 282.391H176.007C174.309 282.391 172.933 283.852 172.933 285.654V289.969C172.933 291.771 174.309 293.232 176.007 293.232H266.141C267.839 293.232 269.215 291.771 269.215 289.969V285.654C269.215 283.852 267.839 282.391 266.141 282.391Z" fill="#E6E6E6"/>
<path d="M266.141 304.073H176.007C174.309 304.073 172.933 305.534 172.933 307.336V311.651C172.933 313.453 174.309 314.914 176.007 314.914H266.141C267.839 314.914 269.215 313.453 269.215 311.651V307.336C269.215 305.534 267.839 304.073 266.141 304.073Z" fill="#E6E6E6"/>
<path d="M273.782 376.676L273.986 377.36L273.997 377.383L280.142 397.212L287.211 420.063L300.511 463.005L300.64 469.675V469.698L301.629 523.358L298.889 530.633L301.972 542.56C301.972 542.56 300.554 524.531 292.948 534.885C288.64 540.769 283.601 546.789 279.465 552.433C285.492 555.022 291.616 557.363 297.836 559.457C299.179 559.913 300.533 560.347 301.886 560.78C302.176 560.871 302.467 560.962 302.757 561.054C323.376 567.526 344.693 571.162 366.185 571.875C367.303 571.909 368.399 571.932 369.462 571.954C369.838 571.966 370.203 571.977 370.569 571.977C371.772 571.989 372.964 572 374.168 572C376.596 572 379.013 571.962 381.419 571.886C399.231 571.353 416.939 568.811 434.244 564.303C434.126 556.721 433.804 547.861 433.342 538.397C433.127 533.756 428.303 528.727 428.013 523.87C427.809 520.221 432.139 516.789 431.913 513.083C430.452 490.267 428.626 499.025 427.272 482.868C427.132 481.283 427.003 479.766 426.885 478.318C426.015 467.942 425.413 461.454 425.413 461.454L431.193 422.788L440.272 362.081L439.573 360.861L438.789 360.45L390.906 335.296L388.306 328.227C387.548 326.19 386.234 324.44 384.532 323.203C382.83 321.965 380.818 321.297 378.755 321.283L347.213 321.146C345.576 321.138 343.961 321.545 342.501 322.332C341.042 323.119 339.781 324.264 338.822 325.673L330.281 338.227L273.782 376.676Z" fill="#3F3D56"/>
<path d="M307.785 453.449L300.64 469.675L295.763 480.758L287.372 527.383L283.172 532.115L279.573 515.364L241.904 524.241C240.669 516.954 241.573 524.487 240.811 516.494C241.025 516.266 241.251 516.038 241.477 515.81C242.078 515.217 242.583 514.658 242.572 514.122C242.143 486.551 243.432 439.63 254.197 411.203C255.883 406.562 258.106 402.161 260.815 398.101C261.029 397.794 261.234 397.486 261.438 397.178C266.401 389.8 269.538 382.537 273.986 377.372V377.36C274.014 377.337 274.039 377.31 274.061 377.28C274.077 377.272 274.092 377.26 274.104 377.246L304.658 360.051L305.969 399.139L306.904 427.235L307.785 453.449Z" fill="#3F3D56"/>
<path d="M417.957 458.058L426.881 478.324L429.996 485.382L438.384 532.002L442.571 536.723L446.178 519.975L447.873 519.606L478.441 512.887L487.351 542.919C489.359 539.368 490.15 535.19 489.591 531.091C489.031 526.992 487.155 523.224 484.28 520.424C483.671 519.84 483.164 519.271 483.179 518.733C483.686 486.304 481.817 427.09 464.939 402.719C459.579 394.985 456.363 387.281 451.683 381.9C451.669 381.884 451.669 381.869 451.654 381.869L440.267 362.08L439.572 360.865L438.79 360.45L417.957 458.058Z" fill="#3F3D56"/>
<path d="M363.895 311.618C387.071 311.618 405.858 291.678 405.858 267.08C405.858 242.482 387.071 222.542 363.895 222.542C340.719 222.542 321.931 242.482 321.931 267.08C321.931 291.678 340.719 311.618 363.895 311.618Z" fill="#FFB6B6"/>
<path d="M420.614 235.97C420.288 235.602 419.896 235.306 419.461 235.102C419.026 234.897 418.556 234.788 418.08 234.781L418.711 232.922C418.917 232.336 418.973 231.703 418.872 231.087C418.772 230.471 418.519 229.895 418.139 229.417C417.76 228.939 417.267 228.576 416.713 228.367C416.158 228.157 415.56 228.108 414.982 228.224L412.684 228.694L412.9 227.064C412.984 226.458 412.916 225.838 412.705 225.267C412.495 224.697 412.147 224.194 411.698 223.809C411.248 223.423 410.712 223.169 410.142 223.07C409.572 222.972 408.987 223.032 408.446 223.246C407.953 223.452 407.424 223.538 406.896 223.498C406.368 223.459 405.855 223.294 405.395 223.016C404.932 222.747 404.531 222.374 404.219 221.924C403.907 221.473 403.691 220.956 403.586 220.407L402.786 216.309L402.701 216.089C398.802 209.192 391.306 204.175 382.133 202.336C373.968 200.686 365.596 201.526 357.525 202.316C354.323 202.635 350.706 202.995 347.693 204.954C345.131 206.634 342.965 209.992 343.408 213.381C335.45 210.792 326.917 215.959 322.689 222.476C317.679 230.233 316.859 239.949 316.727 247.545C316.369 265.517 319.863 280.22 327.087 291.256C327.614 292.055 327.746 293.724 328.791 294.284L328.575 293.914C329.743 294.534 330.929 295.534 330.487 296.603C329.215 299.682 337.663 306.489 343.615 308.738C354.473 312.846 368.911 312.496 379.063 311.017L379.421 308.468C383.084 307.938 385.665 306.928 386.39 305.349C387.671 304.19 388.763 303.15 389.714 302.191L389.724 302.181C389.742 302.161 389.78 302.131 389.799 302.111C394.385 297.443 395.45 294.784 395.93 290.736C396.391 286.768 395.572 282.739 394.734 279.111C412.382 282.01 387.784 259.16 404.227 254.742C404.415 254.68 404.607 254.63 404.801 254.592C405.282 254.472 405.762 254.352 406.223 254.212C408.448 253.571 410.578 252.606 412.552 251.344C417.148 248.375 418.664 244.437 421.037 239.999C421.38 239.367 421.523 238.635 421.447 237.911C421.371 237.186 421.079 236.507 420.614 235.97Z" fill="#2F2E41"/>
<path d="M512.313 461.229C512.304 462.978 512.285 465.427 512.21 468.456C512.2 468.875 512.191 469.305 512.181 469.745C512.059 475.313 511.936 479.98 511.739 485.168C511.729 485.528 511.72 485.878 511.701 486.238C511.437 493.474 511.023 501.901 510.307 515.245C508.979 539.893 506.663 518.633 504.336 527.279C504.223 527.709 504.101 528.219 503.988 528.818C503.636 530.994 503.041 533.118 502.217 535.146C500.984 535.925 499.712 536.675 498.46 537.425C494.891 539.534 491.265 541.563 487.611 543.492C485.558 544.571 483.495 545.631 481.423 546.65C481.094 546.81 480.774 546.97 480.453 547.12C469.844 552.329 458.909 556.757 447.727 560.374C445.542 561.074 443.367 561.754 441.163 562.383C438.865 563.063 436.567 563.703 434.241 564.303C416.936 568.811 399.229 571.355 381.417 571.889C379.016 571.969 376.595 571.999 374.166 571.999C372.96 571.999 371.774 571.989 370.568 571.979C370.201 571.979 369.834 571.969 369.466 571.959C368.402 571.929 367.3 571.909 366.189 571.879C344.697 571.168 323.38 567.529 302.761 561.054L301.885 560.784C300.529 560.344 299.182 559.914 297.836 559.455C291.62 557.366 285.495 555.027 279.462 552.438C274.856 550.469 270.305 548.356 265.806 546.101C265.765 546.089 265.727 546.069 265.693 546.041C264.751 545.581 263.8 545.101 262.858 544.611C262.736 544.541 262.604 544.471 262.472 544.401C258.959 542.582 255.484 540.676 252.047 538.684C249.156 531.637 245.087 530.288 242.563 524.091C241.829 522.249 241.298 520.324 240.981 518.353C240.981 518.333 240.972 518.313 240.972 518.283C241.235 522.002 239.851 511.686 240.962 518.243C240.953 518.123 240.943 517.993 240.934 517.843C240.906 517.484 240.868 517.044 240.812 516.494C237.581 483.019 237.789 444.736 236.385 413.191C236.291 411.152 236.194 409.199 236.093 407.333C236.065 406.713 236.028 406.104 235.99 405.504C236.056 405.324 236.131 405.134 236.216 404.954C236.234 404.902 236.256 404.852 236.282 404.804C236.31 404.742 236.341 404.682 236.376 404.624C236.395 404.594 236.423 404.554 236.442 404.524C236.456 404.49 236.471 404.457 236.489 404.425C236.574 404.285 236.668 404.135 236.771 403.995C236.819 403.935 236.856 403.885 236.903 403.835C236.936 403.784 236.974 403.737 237.016 403.695C237.045 403.647 237.08 403.603 237.12 403.565C237.158 403.525 237.195 403.475 237.242 403.425C237.262 403.394 237.288 403.366 237.318 403.345C237.392 403.254 237.474 403.171 237.563 403.095C237.899 402.767 238.257 402.466 238.636 402.196C238.768 402.106 238.909 402.016 239.041 401.916C239.99 401.313 240.99 400.805 242.027 400.396C242.384 400.256 242.742 400.127 243.128 399.987C243.27 399.947 243.401 399.897 243.543 399.847C243.75 399.777 243.957 399.707 244.174 399.657C245.247 399.317 246.406 399.027 247.658 398.757C247.809 398.727 247.969 398.697 248.129 398.657C248.355 398.607 248.591 398.567 248.826 398.527C249.146 398.467 249.476 398.407 249.805 398.347C252.603 397.878 255.776 397.528 259.28 397.298C259.609 397.278 259.939 397.258 260.269 397.238C260.655 397.218 261.041 397.198 261.436 397.178C261.766 397.158 262.105 397.148 262.444 397.138C262.774 397.118 263.113 397.108 263.461 397.098C264.412 397.068 265.392 397.038 266.39 397.018C269.234 396.958 272.229 396.978 275.374 397.048C276.834 397.088 278.322 397.128 279.848 397.198C279.951 397.198 280.046 397.208 280.14 397.208C281.468 397.258 282.805 397.318 284.18 397.398C285.141 397.448 286.111 397.498 287.081 397.558C287.994 397.618 288.917 397.678 289.849 397.748C290.575 397.788 291.3 397.848 292.034 397.898C292.656 397.947 293.277 397.997 293.899 398.037L294.746 398.097C295.208 398.137 295.669 398.167 296.14 398.217C297.176 398.307 298.212 398.397 299.267 398.487C300.312 398.587 301.377 398.687 302.441 398.787C303.505 398.887 304.579 398.997 305.652 399.107C305.765 399.117 305.869 399.127 305.972 399.137C306.952 399.247 307.931 399.347 308.92 399.457C309.146 399.477 309.382 399.497 309.608 399.527C310.55 399.627 311.512 399.745 312.463 399.852C312.755 399.886 313.045 399.918 313.338 399.952C314.084 400.038 314.818 400.113 315.569 400.206C316.558 400.326 317.565 400.436 318.545 400.576C319.308 400.666 320.071 400.756 320.833 400.856C322.029 401.006 323.244 401.166 324.459 401.336C324.921 401.396 325.382 401.456 325.844 401.526C329.309 401.986 332.813 402.495 336.372 403.025C341.769 403.835 347.25 404.714 352.769 405.664C358.297 406.614 363.856 407.616 369.447 408.673C370.86 408.943 372.273 409.212 373.695 409.492C374.335 409.622 374.975 409.752 375.616 409.882C376.708 410.092 377.801 410.312 378.893 410.532C379.986 410.752 381.078 410.972 382.171 411.201C383.47 411.471 384.779 411.741 386.079 412.011C394.639 413.81 403.153 415.729 411.459 417.739C412.825 418.068 414.191 418.408 415.547 418.738C418.259 419.408 420.946 420.087 423.608 420.777C424.343 420.957 425.068 421.147 425.793 421.337C427.601 421.817 429.41 422.296 431.189 422.786L431.5 422.876C432.809 423.216 434.09 423.566 435.371 423.926C438.394 424.765 441.367 425.615 444.289 426.475C446.229 427.044 448.148 427.621 450.044 428.204C452.878 429.073 455.656 429.953 458.359 430.843C459.028 431.063 459.697 431.282 460.356 431.492C462.334 432.142 464.283 432.802 466.176 433.461C467.683 433.981 469.152 434.511 470.602 435.041C472.053 435.57 473.475 436.1 474.869 436.63C475.763 436.97 476.648 437.33 477.534 437.67C478.805 438.169 480.058 438.669 481.282 439.169C481.659 439.319 482.026 439.479 482.393 439.629C482.629 439.739 482.855 439.829 483.081 439.928C483.523 440.118 483.975 440.298 484.409 440.488C484.851 440.668 485.284 440.858 485.718 441.058C486.141 441.238 486.575 441.428 486.989 441.618C487.413 441.798 487.827 441.988 488.242 442.187C488.59 442.337 488.929 442.497 489.259 442.657C489.927 442.967 490.596 443.277 491.246 443.597C491.566 443.757 491.886 443.907 492.206 444.067L492.941 444.426C493.045 444.486 493.148 444.536 493.252 444.586C493.487 444.706 493.732 444.836 493.967 444.956C494.514 445.226 495.051 445.516 495.578 445.786C496.284 446.166 496.972 446.546 497.631 446.915C498.3 447.295 498.949 447.675 499.571 448.045C499.675 448.105 499.769 448.165 499.872 448.225C500.014 448.305 500.155 448.395 500.296 448.475C500.776 448.765 501.238 449.064 501.699 449.354C502.604 449.944 503.461 450.524 504.261 451.103C504.44 451.233 504.609 451.363 504.788 451.483C505.382 451.933 505.947 452.373 506.474 452.823C506.474 452.833 506.474 452.833 506.484 452.833C506.663 452.973 506.832 453.123 507.002 453.262C507.143 453.402 507.293 453.522 507.435 453.662C507.924 454.112 508.377 454.542 508.791 454.982C508.93 455.117 509.062 455.261 509.186 455.412C509.241 455.46 509.292 455.513 509.337 455.571C509.525 455.771 509.695 455.971 509.855 456.171C509.88 456.199 509.902 456.229 509.921 456.261C510.147 456.541 510.354 456.821 510.552 457.101C510.646 457.241 510.75 457.381 510.835 457.521C510.948 457.69 511.061 457.87 511.155 458.04C511.24 458.18 511.315 458.33 511.39 458.47C511.59 458.83 511.76 459.208 511.899 459.6C512.005 459.865 512.09 460.139 512.153 460.419C512.224 460.685 512.278 460.955 512.313 461.229Z" fill="#2F2E41"/>
<path opacity="0.2" d="M512.313 461.229C512.304 462.978 512.285 465.427 512.21 468.456C512.2 468.876 512.181 469.305 512.172 469.745C512.078 473.993 511.937 479.241 511.739 485.168C511.729 485.528 511.72 485.878 511.701 486.238C511.437 493.474 511.023 501.901 510.307 515.245C508.979 539.893 506.663 518.633 504.336 527.279C497.876 523.061 490.794 518.643 483.222 514.105C481.857 513.285 480.478 512.463 479.088 511.636C463.944 502.67 447.03 493.274 429.372 483.969C428.675 483.599 427.969 483.229 427.272 482.869C386.823 461.649 342.673 441.008 306.905 427.234C300.002 424.575 293.409 422.177 287.212 420.067C274.16 415.639 262.877 412.541 254.194 411.201C245.153 409.802 238.909 410.302 236.385 413.191C236.291 411.151 236.194 409.199 236.093 407.333C236.056 406.713 236.018 406.104 235.98 405.504C236.038 405.339 236.114 405.182 236.187 405.024C236.198 405.001 236.205 404.977 236.216 404.954C236.234 404.902 236.256 404.852 236.282 404.804C236.309 404.742 236.341 404.682 236.376 404.624C236.407 404.554 236.444 404.487 236.489 404.424C236.574 404.285 236.668 404.135 236.771 403.995C236.848 403.89 236.929 403.79 237.016 403.695C237.045 403.647 237.08 403.603 237.12 403.565C237.158 403.525 237.195 403.475 237.242 403.425C237.262 403.393 237.288 403.366 237.318 403.345C237.392 403.254 237.474 403.171 237.563 403.095C237.899 402.767 238.257 402.466 238.636 402.196C238.768 402.106 238.909 402.016 239.041 401.916C239.99 401.313 240.99 400.804 242.026 400.396C242.384 400.256 242.742 400.126 243.128 399.986C243.27 399.947 243.401 399.897 243.543 399.847C243.75 399.777 243.957 399.707 244.174 399.657C245.247 399.317 246.406 399.027 247.658 398.757C248.035 398.677 248.43 398.597 248.826 398.527C249.146 398.467 249.476 398.407 249.805 398.347C252.603 397.877 255.776 397.528 259.28 397.298C259.609 397.278 259.939 397.258 260.268 397.238C260.655 397.218 261.041 397.198 261.436 397.178C261.766 397.158 262.105 397.148 262.444 397.138C262.774 397.118 263.113 397.108 263.461 397.098C264.412 397.068 265.392 397.038 266.39 397.018C269.234 396.968 272.229 396.988 275.374 397.058C276.834 397.088 278.322 397.138 279.848 397.208C279.942 397.208 280.046 397.218 280.14 397.218C281.468 397.258 282.814 397.328 284.18 397.398C285.141 397.448 286.111 397.498 287.08 397.558C287.994 397.618 288.917 397.678 289.849 397.748C290.574 397.787 291.3 397.847 292.034 397.897C292.656 397.947 293.277 397.997 293.899 398.037C294.643 398.097 295.387 398.157 296.14 398.217C297.176 398.307 298.212 398.397 299.267 398.487C300.312 398.587 301.377 398.687 302.441 398.787C303.505 398.887 304.578 398.997 305.652 399.107C305.765 399.117 305.869 399.127 305.972 399.137C306.952 399.247 307.931 399.347 308.92 399.457C314.401 400.046 320.042 400.736 325.844 401.526C329.309 401.996 332.819 402.499 336.372 403.035C341.769 403.845 347.25 404.724 352.769 405.664C358.297 406.613 363.856 407.616 369.447 408.673C370.86 408.942 372.273 409.212 373.695 409.492C375.428 409.832 377.16 410.179 378.893 410.532C379.986 410.752 381.078 410.972 382.171 411.201C383.47 411.471 384.779 411.741 386.079 412.011C394.64 413.81 403.153 415.729 411.46 417.738C412.825 418.068 414.191 418.408 415.547 418.738C418.259 419.408 420.946 420.087 423.608 420.777C424.343 420.967 425.068 421.157 425.793 421.347C427.611 421.827 429.41 422.306 431.189 422.786V422.796C431.293 422.816 431.397 422.846 431.5 422.876C432.8 423.226 434.09 423.576 435.371 423.936C438.394 424.775 441.367 425.622 444.289 426.475C446.229 427.054 448.151 427.624 450.044 428.204C452.878 429.083 455.657 429.963 458.359 430.843C459.028 431.062 459.697 431.282 460.356 431.492C462.334 432.152 464.274 432.808 466.176 433.461C467.683 433.981 469.152 434.511 470.602 435.041C472.053 435.57 473.475 436.1 474.869 436.63C475.773 436.97 476.658 437.32 477.534 437.66C478.815 438.159 480.058 438.659 481.282 439.169C481.659 439.319 482.026 439.479 482.393 439.629C483.081 439.909 483.749 440.198 484.409 440.488C484.851 440.668 485.285 440.858 485.718 441.058C486.142 441.238 486.575 441.428 486.989 441.618C487.413 441.798 487.827 441.988 488.242 442.188C488.59 442.337 488.929 442.497 489.259 442.657C489.927 442.967 490.596 443.277 491.246 443.597C491.566 443.757 491.886 443.907 492.206 444.067L492.941 444.426C493.045 444.486 493.148 444.536 493.252 444.586C494.052 444.986 494.825 445.386 495.578 445.786C496.284 446.166 496.972 446.546 497.631 446.915C498.413 447.355 499.157 447.785 499.872 448.225C500.014 448.305 500.155 448.395 500.296 448.475C500.777 448.765 501.238 449.064 501.699 449.354C502.604 449.944 503.461 450.524 504.261 451.103C505.052 451.683 505.787 452.253 506.474 452.823C506.474 452.833 506.474 452.833 506.484 452.833C506.813 453.112 507.133 453.392 507.435 453.662C507.925 454.112 508.377 454.542 508.791 454.982C508.93 455.117 509.062 455.261 509.187 455.411C509.241 455.46 509.292 455.513 509.337 455.571C509.535 455.801 509.733 456.031 509.921 456.261C510.147 456.541 510.354 456.821 510.552 457.101C510.646 457.241 510.75 457.381 510.835 457.52C510.948 457.69 511.061 457.87 511.155 458.04C511.24 458.18 511.315 458.33 511.39 458.47C511.59 458.83 511.76 459.208 511.899 459.6C512.002 459.866 512.087 460.14 512.153 460.419C512.224 460.685 512.278 460.955 512.313 461.229Z" fill="black"/>
</g>
<defs>
<clipPath id="clip0_2_6">
<rect width="741" height="572" fill="white"/>
</clipPath>
</defs>
</svg>
